<?xml version="1.0" encoding="UTF-8" standalone="no"?>
<!-- Created with Inkscape (http://www.inkscape.org/) -->

<svg
   xmlns:dc="http://purl.org/dc/elements/1.1/"
   xmlns:cc="http://creativecommons.org/ns#"
   xmlns:rdf="http://www.w3.org/1999/02/22-rdf-syntax-ns#"
   xmlns:svg="http://www.w3.org/2000/svg"
   xmlns="http://www.w3.org/2000/svg"
   xmlns:sodipodi="http://sodipodi.sourceforge.net/DTD/sodipodi-0.dtd"
   xmlns:inkscape="http://www.inkscape.org/namespaces/inkscape"
   width="344.75769mm"
   height="102.60105mm"
   viewBox="0 0 1221.5824 363.54703"
   id="svg4701"
   version="1.1"
   inkscape:version="0.91 r13725"
   sodipodi:docname="logo-white.svg">
  <defs
     id="defs4703" />
  <sodipodi:namedview
     id="base"
     pagecolor="#ffffff"
     bordercolor="#666666"
     borderopacity="1.0"
     inkscape:pageopacity="0.0"
     inkscape:pageshadow="2"
     inkscape:zoom="0.35"
     inkscape:cx="-84.208827"
     inkscape:cy="153.20207"
     inkscape:document-units="px"
     inkscape:current-layer="layer1"
     showgrid="false"
     fit-margin-top="0"
     fit-margin-left="0"
     fit-margin-right="0"
     fit-margin-bottom="0"
     inkscape:window-width="2560"
     inkscape:window-height="1371"
     inkscape:window-x="0"
     inkscape:window-y="0"
     inkscape:window-maximized="1" />
  <metadata
     id="metadata4706">
    <rdf:RDF>
      <cc:Work
         rdf:about="">
        <dc:format>image/svg+xml</dc:format>
        <dc:type
           rdf:resource="http://purl.org/dc/dcmitype/StillImage" />
        <dc:title></dc:title>
      </cc:Work>
    </rdf:RDF>
  </metadata>
  <g
     inkscape:label="Layer 1"
     inkscape:groupmode="layer"
     id="layer1"
     transform="translate(273.64832,-322.01724)">
    <g
       style="font-style:normal;font-variant:normal;font-weight:normal;font-stretch:normal;font-size:363.54702759px;line-height:125%;font-family:GROTESKIA;-inkscape-font-specification:'GROTESKIA, Normal';text-align:start;letter-spacing:0px;word-spacing:0px;writing-mode:lr-tb;text-anchor:start;fill:#ffffff;fill-opacity:1;stroke:none;stroke-width:1px;stroke-linecap:butt;stroke-linejoin:miter;stroke-opacity:1"
       id="text4633">
      <path
         d="m -173.81465,570.81751 -52.23854,0 c -4.25648,0 -7.73905,-3.48257 -7.73905,-7.73905 l 0,-172.19373 c 0,-4.25648 3.48257,-7.73905 7.73905,-7.73905 l 52.23854,0 0,-39.85607 -59.97759,0 c -22.05627,0 -39.85608,17.7998 -39.85608,39.85607 l 0,187.67183 c 0,22.05627 17.79981,39.85607 39.85608,39.85607 l 59.97759,0 0,-39.85607 z"
         style="font-style:normal;font-variant:normal;font-weight:normal;font-stretch:normal;font-size:386.95220947px;line-height:125%;font-family:GROTESKIA;-inkscape-font-specification:'GROTESKIA, Normal';text-align:start;writing-mode:lr-tb;text-anchor:start;fill:#ffffff;fill-opacity:1"
         id="path5313" />
      <path
         d="m -113.28519,396.90793 0,-74.89069 -37.44534,0 0,288.65634 37.44534,0 0,-176.3203 30.537954,0 c 3.999018,0 7.270941,2.90837 7.270941,7.27094 l 0,169.04936 37.445344,0 0,-176.3203 c 0,-20.72218 -16.723164,-37.44535 -37.445344,-37.44535 l -37.808895,0 z"
         style="fill:#ffffff"
         id="path5315" />
      <path
         d="m 32.666413,322.01724 -37.4453437,0 0,37.44535 37.4453437,0 0,-37.44535 z m 0,74.89069 -37.4453437,0 0,213.76565 37.4453437,0 0,-213.76565 z"
         style="fill:#ffffff"
         id="path5317" />
      <path
         d="m 163.83077,434.35328 0,-37.44535 -64.347829,0 c -20.72218,0 -37.445343,16.72317 -37.445343,37.44535 l 0,138.87496 c 0,20.72218 16.723163,37.44534 37.445343,37.44534 l 64.347829,0 0,-37.44534 -57.07689,0 c -3.99902,0 -7.270939,-3.27192 -7.270939,-7.27094 l 0,-124.33308 c 0,-3.99902 3.271919,-7.27094 7.270939,-7.27094 l 57.07689,0 z"
         style="fill:#ffffff"
         id="path5319" />
      <path
         d="m 259.88323,396.90793 -58.89462,0 0,37.44535 51.62368,0 c 3.99902,0 7.27094,2.90837 7.27094,7.27094 l 0,30.1744 -37.80889,0 c -20.72218,0 -37.44534,16.72316 -37.44534,37.44534 l 0,63.98428 c 0,20.35863 16.72316,37.44534 37.44534,37.44534 l 75.25424,0 0,-176.3203 c 0,-20.72218 -16.72317,-37.44535 -37.44535,-37.44535 z m 0,176.32031 -30.53795,0 c -3.99902,0 -7.27094,-3.27192 -7.27094,-7.27094 l 0,-49.4424 c 0,-4.36256 3.27192,-7.27094 7.27094,-7.27094 l 30.53795,0 0,63.98428 z"
         style="fill:#ffffff"
         id="path5321" />
      <path
         d="m 364.1564,396.90793 c -20.72218,0 -37.44534,16.72317 -37.44534,37.44535 l 0,138.87496 c 0,20.35863 16.72316,37.44534 37.44534,37.44534 l 37.80889,0 0,30.17441 c 0,3.99901 -3.27192,7.27094 -7.27094,7.27094 l -49.44239,0 0,37.44534 56.71333,0 c 20.72218,0 37.44535,-17.08671 37.44535,-37.44534 l 0,-251.211 -75.25424,0 z m 37.80889,176.32031 -30.53795,0 c -3.99901,0 -7.27094,-3.27192 -7.27094,-7.27094 l 0,-124.33308 c 0,-4.36257 3.27193,-7.27094 7.27094,-7.27094 l 30.53795,0 0,138.87496 z"
         style="fill:#ffffff"
         id="path5323" />
      <path
         d="m 468.79321,434.35328 0,138.87496 c 0,20.35863 16.72317,37.44534 37.44535,37.44534 l 37.80889,0 c 20.72218,0 37.44534,-17.08671 37.44534,-37.44534 l 0,-138.87496 c 0,-20.72218 -16.72316,-37.44535 -37.44534,-37.44535 l -37.80889,0 c -20.72218,0 -37.44535,16.72317 -37.44535,37.44535 z m 67.9833,138.87496 -23.26701,0 c -3.99902,0 -7.27094,-3.27192 -7.27094,-7.27094 l 0,-124.33308 c 0,-4.36257 3.27192,-7.27094 7.27094,-7.27094 l 23.26701,0 c 3.99901,0 7.27094,2.90837 7.27094,7.27094 l 0,124.33308 c 0,3.99902 -3.27193,7.27094 -7.27094,7.27094 z"
         style="fill:#ffffff"
         id="path5325" />
    </g>
    <g
       transform="translate(-1063.6484,231.41504)"
       id="g4639"
       style="font-style:normal;font-variant:normal;font-weight:normal;font-stretch:normal;font-size:363.54702759px;line-height:125%;font-family:GROTESKIA;-inkscape-font-specification:'GROTESKIA, Normal';text-align:start;letter-spacing:0px;word-spacing:0px;writing-mode:lr-tb;text-anchor:start;fill:#ffffff;fill-opacity:1;stroke:none;stroke-width:1px;stroke-linecap:butt;stroke-linejoin:miter;stroke-opacity:1">
      <path
         sodipodi:nodetypes="cccccccccccccc"
         inkscape:connector-curvature="0"
         id="path4641"
         d="m 1838.8809,128.04758 -44.536,92.87791 -44.536,-92.87791 -35.8089,0 0,251.211 37.4453,0 0,-167.24245 27.2671,60.34488 30.9015,0 27.267,-60.34488 0,167.24245 37.4453,0 0,-251.211 z"
         style="fill:#ffffff;fill-opacity:1" />
    </g>
    <g
       transform="translate(-1065.6484,231.41504)"
       id="g4643"
       style="font-style:normal;font-variant:normal;font-weight:normal;font-stretch:normal;font-size:363.54702759px;line-height:125%;font-family:GROTESKIA;-inkscape-font-specification:'GROTESKIA, Normal';text-align:start;letter-spacing:0px;word-spacing:0px;writing-mode:lr-tb;text-anchor:start;fill:#ffffff;fill-opacity:1;stroke:none;stroke-width:1px;stroke-linecap:butt;stroke-linejoin:miter;stroke-opacity:1">
      <path
         sodipodi:nodetypes="ccccccc"
         inkscape:connector-curvature="0"
         id="path4645"
         d="m 2013.5824,341.81323 -70.3498,0 0,-213.76565 -37.4454,0 0,251.211 107.7952,0 z"
         style="fill:#ffffff;fill-opacity:1" />
    </g>
  </g>
</svg>
